<svg width="700" height="700" viewBox="0 0 186 232" fill="none" xmlns="http://www.w3.org/2000/svg">
<rect x="0.667082" y="0.178523" width="106.254" height="195.622" rx="19.5" transform="matrix(0.854064 -0.520168 0.480099 0.877214 0.0116425 58.8904)" fill="black" stroke="white"/>
<rect x="0.667082" y="0.178523" width="103.899" height="195.622" rx="19.5" transform="matrix(0.854064 -0.520168 0.480099 0.877214 1.30461 54.9334)" fill="black" stroke="white"/>
<path d="M29.5027 57.9453C29.5027 58.7282 28.8819 59.3512 28.1304 59.3512C27.3789 59.3512 26.7582 58.7282 26.7582 57.9453C26.7582 57.1625 27.3789 56.5395 28.1304 56.5395C28.8819 56.5395 29.5027 57.1625 29.5027 57.9453Z" fill="black" stroke="white" stroke-width="0.7"/>
<rect x="0.466957" y="0.124966" width="38.6371" height="3.34018" rx="1.65" transform="matrix(0.854064 -0.520168 0.480099 0.877214 36.2171 52.0961)" fill="black" stroke="white" stroke-width="0.7"/>
<rect x="0.667082" y="0.178523" width="88.3755" height="135.356" transform="matrix(0.854064 -0.520168 0.480099 0.877214 20.8183 75.0681)" fill="black" stroke="white"/>
<path d="M140.723 182.61C140.723 186.868 137.339 190.304 133.185 190.304C129.032 190.304 125.648 186.868 125.648 182.61C125.648 178.352 129.032 174.916 133.185 174.916C137.339 174.916 140.723 178.352 140.723 182.61Z" fill="black" stroke="white"/>
</svg>
